<svg id="efOmay9wFjI1" xmlns="http://www.w3.org/2000/svg" xmlns:xlink="http://www.w3.org/1999/xlink" viewBox="0 0 32 32" shape-rendering="geometricPrecision" text-rendering="geometricPrecision"><g transform="translate(0 0.000001)"><rect width="28.098033" height="4.029333" rx="0" ry="0" transform="translate(.000001 0.000001)" fill="#fff" stroke-width="0"/><rect width="1.861297" height="2.014668" rx="0" ry="0" transform="translate(28.098035 0)" fill="#fff" stroke-width="0"/><rect width="3.90116" height="24.004324" rx="0" ry="0" transform="matrix(1.06581 0 0 1-.128368 4.029334)" fill="#fff" stroke-width="0"/><rect width="1.95058" height="1.989663" rx="0" ry="0" transform="translate(0 28.033659)" fill="#fff" stroke-width="0"/></g><g><rect width="1.861298" height="2.014666" rx="0" ry="0" transform="translate(28.098034 2.014669)" fill="#c1c1c1" stroke-width="0"/><rect width="2.040668" height="2.014667" rx="0" ry="0" transform="translate(29.959332 0.000002)" fill="#c1c1c1" stroke-width="0"/><rect width="2.078948" height="1.989664" rx="0" ry="0" transform="translate(1.95058 28.033659)" fill="#c1c1c1" stroke-width="0"/><rect width="2.078948" height="1.976677" rx="0" ry="0" transform="translate(-.128368 30.023324)" fill="#c1c1c1" stroke-width="0"/><rect width="24.068506" height="24.004324" rx="0" ry="0" transform="translate(4.029528 4.029335)" fill="#c1c1c1" stroke-width="0"/></g><g transform="translate(0 0.000001)"><rect width="27.970472" height="3.966341" rx="0" ry="0" transform="translate(4.029528 28.03366)" fill="#818181" stroke-width="0"/><rect width="3.901966" height="24.004325" rx="0" ry="0" transform="translate(28.098034 4.029336)" fill="#818181" stroke-width="0"/><rect width="2.040668" height="2.014666" rx="0" ry="0" transform="translate(29.959332 2.014669)" fill="#818181" stroke-width="0"/><rect width="2.078948" height="1.98317" rx="0" ry="0" transform="translate(1.95058 30.01683)" fill="#818181" stroke-width="0"/></g><g><rect width="3.965747" height="10.049325" rx="0" ry="0" transform="translate(14.049018 5.982174)" fill="#f00" stroke-width="0"/><rect width="4.158452" height="6.259477" rx="0" ry="0" transform="translate(9.890566 7.888146)" fill="#f00" stroke-width="0"/><rect width="1.897131" height="2.21332" rx="0" ry="0" transform="translate(7.979779 9.864822)" fill="#f00" stroke-width="0"/></g><g transform="translate(.000001 0.000001)"><rect width="16.147591" height="4.116601" rx="0" ry="0" transform="translate(7.97978 21.887083)" stroke-width="0"/><rect width="8.093754" height="1.952747" rx="0" ry="0" transform="translate(11.969792 19.934336)" stroke-width="0"/><rect width="2.014764" height="3.902836" rx="0" ry="0" transform="translate(16 16.0315)" stroke-width="0"/></g></svg>
