<svg id="ev6eLUuz7jJ1" xmlns="http://www.w3.org/2000/svg" xmlns:xlink="http://www.w3.org/1999/xlink" viewBox="0 0 128 128" shape-rendering="geometricPrecision" text-rendering="geometricPrecision"><rect width="96.087672" height="95.853881" rx="0" ry="0" transform="translate(15.956164 16.131508)" fill="#c1c1c1" stroke-width="0"/><rect width="15.800675" height="112.063883" rx="0" ry="0" transform="translate(112.199326 15.936118)" fill="#818181" stroke-width="0"/><rect width="7.900337" height="8.151295" rx="0" ry="0" transform="translate(120.099664 7.980213)" fill="#818181" stroke-width="0"/><rect width="96.361182" height="16.014611" rx="0" ry="0" transform="translate(15.838144 111.985389)" fill="#818181" stroke-width="0"/><rect width="8.223521" height="8.007306" rx="0" ry="0" transform="translate(7.732643 119.992694)" fill="#818181" stroke-width="0"/><rect width="7.900337" height="8.544314" rx="0" ry="0" transform="translate(112.199326 7.587194)" fill="#c1c1c1" stroke-width="0"/><rect width="7.900337" height="7.980213" rx="0" ry="0" transform="translate(120.099664 0.000001)" fill="#c1c1c1" stroke-width="0"/><rect width="8.619532" height="8.007305" rx="0" ry="0" transform="translate(7.336632 111.985389)" fill="#c1c1c1" stroke-width="0"/><rect width="7.732643" height="8.007306" rx="0" ry="0" transform="translate(.000001 119.992694)" fill="#c1c1c1" stroke-width="0"/><rect width="112.199326" height="16.131508" rx="0" ry="0" fill="#fff" stroke-width="0"/><rect width="15.838144" height="96.049271" rx="0" ry="0" transform="translate(0 15.936119)" fill="#fff" stroke-width="0"/><rect width="7.732643" height="8.007305" rx="0" ry="0" transform="translate(.000002 111.985389)" fill="#fff" stroke-width="0"/><rect width="7.900338" height="8.065754" rx="0" ry="0" transform="translate(112.199326 0)" fill="#fff" stroke-width="0"/></svg>
