<svg id="elDHZ5IMaym1" xmlns="http://www.w3.org/2000/svg" xmlns:xlink="http://www.w3.org/1999/xlink" viewBox="0 0 32 32" shape-rendering="geometricPrecision" text-rendering="geometricPrecision"><g transform="matrix(.13913 0 0 0.13913 0.00005 0.00005)"><rect width="230" height="230" rx="0" ry="0" fill="#818181" stroke-width="0"/><rect width="230" height="230" rx="0" ry="0" transform="matrix(.87964 0 0 0.87964 13.634445 13.954585)" fill="#fe0000" stroke-width="0"/><g style="mix-blend-mode:color-burn" transform="matrix(.766764 0 0 0.766761 4.395783 14.964281)"><path d="M73.03539,75.01032v-14.83598h15.68375v14.83598h-15.68375Zm32.21526-13.83597h30.09583v-29.09584h17.80317v29.09584h30.09583v13.83598h15.25986v16.95539h14.68374v30.9436h28.67195v16.53151h-28.67195v30.94361h-14.68374v13.56432h15.68374v16.53151h-15.68374v-16.53151h-15.25986v15.53151h-30.09584v29.51972h-17.80317v-29.51972h-30.51972v-15.53151h-16.10763v15.53151h-15.68374v-16.10763h15.68374v-12.9882h-14.68374v-30.94361h-27.4003v-16.53151h27.4003v-30.51972h14.68374v-17.37928h16.53152l.00001-13.83597Zm93.2547,13.83597v-14.83598h15.68374v14.83598h-15.68374Zm-63.15887,47.89901v-30.51972h-30.09584v30.51972h30.09584Z" stroke-width="0"/></g></g></svg>
